<svg width="24" height="24" viewBox="0 0 24 24" fill="none" xmlns="http://www.w3.org/2000/svg">
<path d="M7.3885 12.7508H18.75C18.9628 12.7508 19.141 12.679 19.2845 12.5353C19.4282 12.3918 19.5 12.2136 19.5 12.0008C19.5 11.788 19.4282 11.6098 19.2845 11.4663C19.141 11.3226 18.9628 11.2508 18.75 11.2508H7.3885L10.6807 7.95856C10.8294 7.80973 10.9028 7.63565 10.901 7.43631C10.899 7.23698 10.8256 7.05973 10.6807 6.90456C10.5256 6.74956 10.3474 6.66948 10.1462 6.66431C9.94492 6.65915 9.76667 6.73415 9.6115 6.88931L5.13275 11.3681C5.03908 11.4617 4.97308 11.5605 4.93475 11.6643C4.89625 11.7681 4.877 11.8803 4.877 12.0008C4.877 12.1213 4.89625 12.2335 4.93475 12.3373C4.97308 12.4411 5.03908 12.5399 5.13275 12.6336L9.6115 17.1123C9.76033 17.261 9.93692 17.3344 10.1413 17.3326C10.3458 17.3306 10.5256 17.2521 10.6807 17.0971C10.8256 16.9419 10.9006 16.7662 10.9057 16.5701C10.9109 16.3739 10.8359 16.1982 10.6807 16.0431L7.3885 12.7508Z" fill="#12B3DD"/>
</svg>
